<svg width="3915" height="1631" xmlns="http://www.w3.org/2000/svg" xmlns:xlink="http://www.w3.org/1999/xlink" xml:space="preserve" overflow="hidden"><g transform="translate(-242 -527)"><g><path d="M246.5 1398.33C246.5 1383.51 258.514 1371.5 273.334 1371.5L703.666 1371.5C718.486 1371.5 730.5 1383.51 730.5 1398.33L730.5 1505.67C730.5 1520.49 718.486 1532.5 703.666 1532.5L273.334 1532.5C258.514 1532.5 246.5 1520.49 246.5 1505.67Z" stroke="#042433" stroke-width="6.875" stroke-linecap="butt" stroke-linejoin="miter" stroke-miterlimit="8" stroke-opacity="1" fill="#D9D9D9" fill-rule="evenodd" fill-opacity="1"/><text fill="#000000" fill-opacity="1" font-family="Aptos,Aptos_MSFontService,sans-serif" font-style="normal" font-variant="normal" font-weight="700" font-stretch="normal" font-size="73" text-anchor="start" direction="ltr" writing-mode="lr-tb" unicode-bidi="normal" text-decoration="none" transform="matrix(1 0 0 1 342.554 1476)">S0 </text><text fill="#000000" fill-opacity="1" font-family="Aptos,Aptos_MSFontService,sans-serif" font-style="normal" font-variant="normal" font-weight="700" font-stretch="normal" font-size="73" text-anchor="start" direction="ltr" writing-mode="lr-tb" unicode-bidi="normal" text-decoration="none" transform="matrix(1 0 0 1 440.522 1476)">-</text><text fill="#000000" fill-opacity="1" font-family="Aptos,Aptos_MSFontService,sans-serif" font-style="normal" font-variant="normal" font-weight="700" font-stretch="normal" font-size="73" text-anchor="start" direction="ltr" writing-mode="lr-tb" unicode-bidi="normal" text-decoration="none" transform="matrix(1 0 0 1 480.627 1476)">IDLE</text><path d="M1991 1686.84 3351.41 1686.84 3351.41 1697.16 1991 1697.16ZM3346.26 1676.53 3377.19 1692 3346.26 1707.47Z" fill="#A02B93" fill-rule="nonzero" fill-opacity="1"/><path d="M65.3952 217.465 55.4372 213.797 45.4402 207.55 36.3621 200.593 28.0198 192.837 20.4717 184.338 13.7768 175.157 7.99449 165.353 3.18461 154.985-0.592534 144.115-3.27658 132.805-4.80761 121.118-5.12678 109.121-4.20348 97.154-2.08547 85.555 1.16501 74.3873 5.48488 63.7119 10.8107 53.5879 17.0791 44.0734 24.2274 35.2249 32.1933 27.0989 40.915 19.7514 50.3312 13.2386 60.3806 7.61682 71.0017 2.94309 82.1324-0.725401 93.7098-3.3313 105.67-4.81744 117.944-5.12717 129.986-4.25546 141.67-2.26083 152.935 0.800667 163.723 4.87237 173.976 9.89751 183.637 15.8194 192.649 22.5819 200.956 30.1288 208.501 38.4047 215.228 47.3537 221.079 56.9202 225.996 67.0477 229.921 77.679 232.795 88.7553 234.562 100.217 235.15 111.737 224.851 112.263 224.276 101.005 224.33 101.527 222.643 90.5837 222.748 91.0936 220.004 80.5187 220.157 81.0092 216.409 70.8574 216.608 71.3235 211.911 61.6491 212.151 62.0874 206.559 52.9448 206.836 53.3527 200.405 44.7962 200.716 45.1721 193.499 37.2561 193.842 37.5985 185.894 30.3774 186.266 30.6853 177.641 24.2133 178.041 24.4851 168.794 18.8167 169.219 19.0507 159.404 14.2402 159.852 14.4342 149.524 10.5359 149.992 10.6876 139.205 7.75585 139.689 7.86279 128.497 5.952 128.993 6.01208 117.451 5.17658 117.953 5.18839 106.184 5.48538 106.69 5.44766 95.2318 6.87139 95.7283 6.78489 84.6411 9.28045 85.1228 9.14718 74.4654 12.6597 74.9281 12.4821 64.7597 16.9566 65.2002 16.7371 55.5799 22.1188 55.9957 21.8595 46.9828 28.0934 47.3718 27.7962 39.0254 34.8274 39.3855 34.4936 31.7649 42.2673 32.0937 41.898 25.2582 50.3593 25.5531 49.9558 19.5617 59.0497 19.8193 58.6136 14.7314 68.2852 14.9478 67.8188 10.8225 78.0133 10.9936 77.5202 7.89014 88.1827 8.01172 87.6679 5.9893 98.7435 6.0579 98.2139 5.17573 109.648 5.18919 109.114 5.49412 120.576 5.45226 120.043 6.91412 131.202 6.81848 130.681 9.38089 141.479 9.23455 140.978 12.8411 151.357 12.6479 150.879 17.2423 160.783 17.0063 160.333 22.5321 169.702 22.257 169.284 28.6579 178.062 28.3469 177.676 35.5665 185.804 35.2224 185.452 43.2044 192.874 42.8294 192.557 51.5174 199.214 51.1137 198.935 60.4512 204.77 59.5012 204.304 68.9603 207.789ZM68.4774 186.367 112.177 223.966 55.8782 236.367Z" fill="#A02B93" fill-rule="nonzero" fill-opacity="1" transform="matrix(1 -1.22465e-16 -1.22465e-16 -1 1346 1907)"/><path d="M1486.5 1274.17C1486.5 1229.62 1522.62 1193.5 1567.17 1193.5L1889.83 1193.5C1934.38 1193.5 1970.5 1229.62 1970.5 1274.17L1970.5 1684.83C1970.5 1729.38 1934.38 1765.5 1889.83 1765.5L1567.17 1765.5C1522.62 1765.5 1486.5 1729.38 1486.5 1684.83Z" stroke="#042433" stroke-width="6.875" stroke-linecap="butt" stroke-linejoin="miter" stroke-miterlimit="8" stroke-opacity="1" fill="#D9D9D9" fill-rule="evenodd" fill-opacity="1"/><text fill="#000000" fill-opacity="1" font-family="Aptos,Aptos_MSFontService,sans-serif" font-style="normal" font-variant="normal" font-weight="700" font-stretch="normal" font-size="73" text-anchor="start" direction="ltr" writing-mode="lr-tb" unicode-bidi="normal" text-decoration="none" transform="matrix(1 0 0 1 1564.99 1371)">S1 </text><text fill="#000000" fill-opacity="1" font-family="Aptos,Aptos_MSFontService,sans-serif" font-style="normal" font-variant="normal" font-weight="700" font-stretch="normal" font-size="73" text-anchor="start" direction="ltr" writing-mode="lr-tb" unicode-bidi="normal" text-decoration="none" transform="matrix(1 0 0 1 1662.96 1371)">–</text><text fill="#000000" fill-opacity="1" font-family="Aptos,Aptos_MSFontService,sans-serif" font-style="normal" font-variant="normal" font-weight="700" font-stretch="normal" font-size="73" text-anchor="start" direction="ltr" writing-mode="lr-tb" unicode-bidi="normal" text-decoration="none" transform="matrix(1 0 0 1 1711.66 1371)">SEED</text><text fill="#000000" fill-opacity="1" font-family="Arial,Arial_MSFontService,sans-serif" font-style="normal" font-variant="normal" font-weight="400" font-stretch="normal" font-size="55" text-anchor="start" direction="ltr" writing-mode="lr-tb" unicode-bidi="normal" text-decoration="none" transform="matrix(1 0 0 1 1542.95 1442)">•</text><text fill="#000000" fill-opacity="1" font-family="Aptos,Aptos_MSFontService,sans-serif" font-style="normal" font-variant="normal" font-weight="400" font-stretch="normal" font-size="55" text-anchor="start" direction="ltr" writing-mode="lr-tb" unicode-bidi="normal" text-decoration="none" transform="matrix(1 0 0 1 1604.82 1442)">index_seed</text><text fill="#FF0000" fill-opacity="1" font-family="Arial,Arial_MSFontService,sans-serif" font-style="normal" font-variant="normal" font-weight="400" font-stretch="normal" font-size="55" text-anchor="start" direction="ltr" writing-mode="lr-tb" unicode-bidi="normal" text-decoration="none" transform="matrix(1 0 0 1 1542.95 1508)">•</text><text fill="#FF0000" fill-opacity="1" font-family="Aptos,Aptos_MSFontService,sans-serif" font-style="normal" font-variant="normal" font-weight="400" font-stretch="normal" font-size="55" text-anchor="start" direction="ltr" writing-mode="lr-tb" unicode-bidi="normal" text-decoration="none" transform="matrix(1 0 0 1 1604.82 1508)">done_seed</text><text fill="#FF0000" fill-opacity="1" font-family="Arial,Arial_MSFontService,sans-serif" font-style="normal" font-variant="normal" font-weight="400" font-stretch="normal" font-size="55" text-anchor="start" direction="ltr" writing-mode="lr-tb" unicode-bidi="normal" text-decoration="none" transform="matrix(1 0 0 1 1542.95 1574)">•</text><text fill="#FF0000" fill-opacity="1" font-family="Aptos,Aptos_MSFontService,sans-serif" font-style="normal" font-variant="normal" font-weight="400" font-stretch="normal" font-size="55" text-anchor="start" direction="ltr" writing-mode="lr-tb" unicode-bidi="normal" text-decoration="none" transform="matrix(1 0 0 1 1604.82 1574)">write_en_se</text><text fill="#FF0000" fill-opacity="1" font-family="Aptos,Aptos_MSFontService,sans-serif" font-style="normal" font-variant="normal" font-weight="400" font-stretch="normal" font-size="55" text-anchor="start" direction="ltr" writing-mode="lr-tb" unicode-bidi="normal" text-decoration="none" transform="matrix(1 0 0 1 1604.82 1640)">ed</text><path d="M3398.5 1247.17C3398.5 1202.62 3434.62 1166.5 3479.17 1166.5L3801.83 1166.5C3846.38 1166.5 3882.5 1202.62 3882.5 1247.17L3882.5 1657.83C3882.5 1702.38 3846.38 1738.5 3801.83 1738.5L3479.17 1738.5C3434.62 1738.5 3398.5 1702.38 3398.5 1657.83Z" stroke="#042433" stroke-width="6.875" stroke-linecap="butt" stroke-linejoin="miter" stroke-miterlimit="8" stroke-opacity="1" fill="#D9D9D9" fill-rule="evenodd" fill-opacity="1"/><text fill="#000000" fill-opacity="1" font-family="Aptos,Aptos_MSFontService,sans-serif" font-style="normal" font-variant="normal" font-weight="700" font-stretch="normal" font-size="73" text-anchor="start" direction="ltr" writing-mode="lr-tb" unicode-bidi="normal" text-decoration="none" transform="matrix(1 0 0 1 3462.32 1311)">S2 </text><text fill="#000000" fill-opacity="1" font-family="Aptos,Aptos_MSFontService,sans-serif" font-style="normal" font-variant="normal" font-weight="700" font-stretch="normal" font-size="73" text-anchor="start" direction="ltr" writing-mode="lr-tb" unicode-bidi="normal" text-decoration="none" transform="matrix(1 0 0 1 3560.29 1311)">–</text><text fill="#000000" fill-opacity="1" font-family="Aptos,Aptos_MSFontService,sans-serif" font-style="normal" font-variant="normal" font-weight="700" font-stretch="normal" font-size="73" text-anchor="start" direction="ltr" writing-mode="lr-tb" unicode-bidi="normal" text-decoration="none" transform="matrix(1 0 0 1 3608.99 1311)">TWIST</text><text fill="#000000" fill-opacity="1" font-family="Arial,Arial_MSFontService,sans-serif" font-style="normal" font-variant="normal" font-weight="400" font-stretch="normal" font-size="55" text-anchor="start" direction="ltr" writing-mode="lr-tb" unicode-bidi="normal" text-decoration="none" transform="matrix(1 0 0 1 3454.46 1382)">•</text><text fill="#000000" fill-opacity="1" font-family="Aptos,Aptos_MSFontService,sans-serif" font-style="normal" font-variant="normal" font-weight="400" font-stretch="normal" font-size="55" text-anchor="start" direction="ltr" writing-mode="lr-tb" unicode-bidi="normal" text-decoration="none" transform="matrix(1 0 0 1 3516.33 1382)">index_twist</text><text fill="#FF0000" fill-opacity="1" font-family="Arial,Arial_MSFontService,sans-serif" font-style="normal" font-variant="normal" font-weight="400" font-stretch="normal" font-size="55" text-anchor="start" direction="ltr" writing-mode="lr-tb" unicode-bidi="normal" text-decoration="none" transform="matrix(1 0 0 1 3454.46 1448)">•</text><text fill="#FF0000" fill-opacity="1" font-family="Aptos,Aptos_MSFontService,sans-serif" font-style="normal" font-variant="normal" font-weight="400" font-stretch="normal" font-size="55" text-anchor="start" direction="ltr" writing-mode="lr-tb" unicode-bidi="normal" text-decoration="none" transform="matrix(1 0 0 1 3516.33 1448)">done_twist</text><text fill="#FF0000" fill-opacity="1" font-family="Arial,Arial_MSFontService,sans-serif" font-style="normal" font-variant="normal" font-weight="400" font-stretch="normal" font-size="55" text-anchor="start" direction="ltr" writing-mode="lr-tb" unicode-bidi="normal" text-decoration="none" transform="matrix(1 0 0 1 3454.46 1514)">•</text><text fill="#FF0000" fill-opacity="1" font-family="Aptos,Aptos_MSFontService,sans-serif" font-style="normal" font-variant="normal" font-weight="400" font-stretch="normal" font-size="55" text-anchor="start" direction="ltr" writing-mode="lr-tb" unicode-bidi="normal" text-decoration="none" transform="matrix(1 0 0 1 3516.33 1514)">write_en_twi</text><text fill="#FF0000" fill-opacity="1" font-family="Aptos,Aptos_MSFontService,sans-serif" font-style="normal" font-variant="normal" font-weight="400" font-stretch="normal" font-size="55" text-anchor="start" direction="ltr" writing-mode="lr-tb" unicode-bidi="normal" text-decoration="none" transform="matrix(1 0 0 1 3516.33 1580)">st</text><text fill="#FF0000" fill-opacity="1" font-family="Arial,Arial_MSFontService,sans-serif" font-style="normal" font-variant="normal" font-weight="400" font-stretch="normal" font-size="55" text-anchor="start" direction="ltr" writing-mode="lr-tb" unicode-bidi="normal" text-decoration="none" transform="matrix(1 0 0 1 3454.46 1646)">•</text><text fill="#FF0000" fill-opacity="1" font-family="Aptos,Aptos_MSFontService,sans-serif" font-style="normal" font-variant="normal" font-weight="400" font-stretch="normal" font-size="55" text-anchor="start" direction="ltr" writing-mode="lr-tb" unicode-bidi="normal" text-decoration="none" transform="matrix(1 0 0 1 3516.33 1646)">valid_rn</text><text fill="#00B050" fill-opacity="1" font-family="Aptos,Aptos_MSFontService,sans-serif" font-style="normal" font-variant="normal" font-weight="400" font-stretch="normal" font-size="64" text-anchor="start" direction="ltr" writing-mode="lr-tb" unicode-bidi="normal" text-decoration="none" transform="matrix(1 0 0 1 817.419 1416)">ext_seed_enable</text><text fill="#00B050" fill-opacity="1" font-family="Aptos,Aptos_MSFontService,sans-serif" font-style="normal" font-variant="normal" font-weight="400" font-stretch="normal" font-size="64" text-anchor="start" direction="ltr" writing-mode="lr-tb" unicode-bidi="normal" text-decoration="none" transform="matrix(1 0 0 1 1297.13 1416)">= 1</text><text fill="#00B050" fill-opacity="1" font-family="Aptos,Aptos_MSFontService,sans-serif" font-style="normal" font-variant="normal" font-weight="400" font-stretch="normal" font-size="64" text-anchor="start" direction="ltr" writing-mode="lr-tb" unicode-bidi="normal" text-decoration="none" transform="matrix(1 0 0 1 1532.3 755)">done_seed</text><text fill="#00B050" fill-opacity="1" font-family="Aptos,Aptos_MSFontService,sans-serif" font-style="normal" font-variant="normal" font-weight="400" font-stretch="normal" font-size="64" text-anchor="start" direction="ltr" writing-mode="lr-tb" unicode-bidi="normal" text-decoration="none" transform="matrix(1 0 0 1 1850.84 755)">= 1</text><text fill="#00B050" fill-opacity="1" font-family="Aptos,Aptos_MSFontService,sans-serif" font-style="normal" font-variant="normal" font-weight="400" font-stretch="normal" font-size="64" text-anchor="start" direction="ltr" writing-mode="lr-tb" unicode-bidi="normal" text-decoration="none" transform="matrix(1 0 0 1 1532.3 832)">done_twist</text><text fill="#00B050" fill-opacity="1" font-family="Aptos,Aptos_MSFontService,sans-serif" font-style="normal" font-variant="normal" font-weight="400" font-stretch="normal" font-size="64" text-anchor="start" direction="ltr" writing-mode="lr-tb" unicode-bidi="normal" text-decoration="none" transform="matrix(1 0 0 1 1849.9 832)">= 1</text><text fill="#00B050" fill-opacity="1" font-family="Aptos,Aptos_MSFontService,sans-serif" font-style="normal" font-variant="normal" font-weight="400" font-stretch="normal" font-size="64" text-anchor="start" direction="ltr" writing-mode="lr-tb" unicode-bidi="normal" text-decoration="none" transform="matrix(1 0 0 1 1329.77 1997)">done_seed</text><text fill="#00B050" fill-opacity="1" font-family="Aptos,Aptos_MSFontService,sans-serif" font-style="normal" font-variant="normal" font-weight="400" font-stretch="normal" font-size="64" text-anchor="start" direction="ltr" writing-mode="lr-tb" unicode-bidi="normal" text-decoration="none" transform="matrix(1 0 0 1 1648.31 1997)">= 0</text><path d="M140.908 103.485 156.726 92.0605 175.801 80.0334 195.512 68.806 215.849 58.3586 236.769 48.694 258.226 39.8151 280.175 31.725 302.573 24.4266 325.375 17.9233 348.536 12.2181 372.013 7.31442 395.76 3.21571 419.735-0.0745649 443.892-2.55285 468.187-4.21552 492.577-5.05884 517.017-5.07905 541.463-4.27229 565.87-2.63465 590.195-0.162143 614.393 3.1493 638.42 7.30378 662.232 12.3055 685.784 18.1587 709.032 24.8678 731.931 32.4371 754.437 40.871 776.506 50.1741 798.091 60.3509 819.151 71.4068 839.792 83.4564 859.507 96.2527 878.253 109.769 895.887 123.894 889.439 131.943 871.908 117.899 872.116 118.057 853.578 104.692 853.786 104.834 834.28 92.1729 834.487 92.3009 814.052 80.3713 814.255 80.4836 793.396 69.533 793.594 69.6315 772.205 59.5477 772.401 59.6351 750.527 50.4141 750.721 50.4912 728.407 42.1294 728.598 42.1967 705.889 34.6902 706.078 34.7486 683.017 28.0936 683.203 28.1436 659.836 22.3363 660.02 22.3784 636.391 17.415 636.572 17.4498 612.725 13.3265 612.905 13.3543 588.885 10.0673 589.063 10.0884 564.915 7.63393 565.091 7.64879 540.86 6.02294 541.035 6.0317 516.764 5.23071 516.938 5.23352 492.673 5.25358 492.846 5.25051 468.631 6.08782 468.804 6.07886 444.683 7.72961 444.857 7.71472 420.875 10.1751 421.05 10.1541 397.251 13.4203 397.427 13.3931 373.856 17.4613 374.033 17.4275 350.734 22.2939 350.913 22.2532 327.932 27.914 328.113 27.866 305.494 34.3174 305.677 34.2614 283.464 41.4996 283.65 41.4352 261.887 49.4563 262.075 49.3827 240.808 58.183 240.999 58.0995 220.272 67.6752 220.466 67.5808 200.323 77.9281 200.519 77.822 181.005 88.937 181.203 88.8183 162.363 100.697 162.632 100.516 146.946 111.845ZM163.994 124.652 107.58 136.518 131.936 84.2671Z" fill="#A02B93" fill-rule="nonzero" fill-opacity="1" transform="matrix(-0.755827 0.654771 0.654771 0.755827 2375.64 491.946)"/><text fill="#00B050" fill-opacity="1" font-family="Aptos,Aptos_MSFontService,sans-serif" font-style="normal" font-variant="normal" font-weight="400" font-stretch="normal" font-size="64" text-anchor="start" direction="ltr" writing-mode="lr-tb" unicode-bidi="normal" text-decoration="none" transform="matrix(1 0 0 1 2143.86 1266)">prev_state</text><text fill="#00B050" fill-opacity="1" font-family="Aptos,Aptos_MSFontService,sans-serif" font-style="normal" font-variant="normal" font-weight="400" font-stretch="normal" font-size="64" text-anchor="start" direction="ltr" writing-mode="lr-tb" unicode-bidi="normal" text-decoration="none" transform="matrix(1 0 0 1 2445.05 1266)">= S2</text><path d="M122.563 104.063 134.134 94.9836 151.465 83.2075 169.419 72.1756 187.999 61.8613 207.164 52.2683 226.872 43.4004 247.08 35.2613 267.747 27.855 288.832 21.1854 310.293 15.2566 332.09 10.0726 354.18 5.63783 376.522 1.95645 399.076-0.967108 421.799-3.12839 444.652-4.52287 467.591-5.14594 490.577-4.99292 513.567-4.05908 536.521-2.33959 559.398 0.170403 582.155 3.47586 604.752 7.58178 627.148 12.4932 649.3 18.2154 671.167 24.7534 692.708 32.1126 713.881 40.2983 734.644 49.3157 754.951 59.1681 772.616 68.6592 789.633 78.7142 805.981 89.3195 821.538 100.393 815.558 108.794 800.091 97.7855 800.275 97.9104 784.111 87.4243 784.294 87.5378 767.46 77.591 767.642 77.6939 750.164 68.3028 750.354 68.3997 730.24 58.6411 730.437 58.7315 709.869 49.7991 710.064 49.879 689.085 41.7682 689.277 41.8382 667.927 34.5444 668.117 34.6052 646.439 28.1236 646.626 28.1758 624.661 22.5018 624.846 22.546 602.634 17.6749 602.817 17.7115 580.402 13.6386 580.582 13.6681 558.005 10.3888 558.184 10.4116 535.485 7.92109 535.662 7.93745 512.885 6.23119 513.061 6.24135 490.246 5.31463 490.421 5.31877 467.61 5.16691 467.784 5.16513 445.019 5.78346 445.193 5.77579 422.515 7.15964 422.689 7.14605 400.14 9.29074 400.315 9.27112 377.936 12.172 378.111 12.1462 355.945 15.7985 356.122 15.7663 334.209 20.1654 334.387 20.1264 312.77 25.2677 312.95 25.2215 291.67 31.1003 291.852 31.0464 270.95 37.658 271.134 37.5958 250.653 44.9356 250.84 44.8645 230.82 52.9277 231.009 52.8469 211.493 61.6289 211.685 61.5377 192.714 71.0338 192.908 70.9311 174.524 81.1367 174.721 81.0217 156.964 91.932 157.163 91.8036 140.076 103.414 140.361 103.206 128.93 112.176ZM146.354 124.447 90.3535 138.134 113.004 85.1219Z" fill="#A02B93" fill-rule="nonzero" fill-opacity="1" transform="matrix(0.714987 -0.699137 -0.699137 -0.714987 2007.12 1400.85)"/><path d="M65.3952 217.465 55.4372 213.797 45.4402 207.55 36.3621 200.593 28.0198 192.837 20.4717 184.338 13.7768 175.157 7.99449 165.353 3.18461 154.985-0.592533 144.115-3.27658 132.804-4.80761 121.118-5.12678 109.121-4.20348 97.154-2.08547 85.5549 1.16501 74.3872 5.48488 63.7118 10.8107 53.5879 17.0791 44.0733 24.2274 35.2249 32.1933 27.0989 40.915 19.7514 50.3312 13.2385 60.3806 7.61681 71.0017 2.94309 82.1324-0.725404 93.7098-3.3313 105.67-4.81744 117.944-5.12717 129.986-4.25546 141.67-2.26083 152.935 0.800662 163.723 4.87237 173.976 9.89751 183.637 15.8194 192.649 22.5819 200.956 30.1288 208.501 38.4046 215.228 47.3537 221.079 56.9202 225.996 67.0477 229.921 77.6789 232.795 88.7553 234.562 100.217 235.15 111.737 224.851 112.263 224.276 101.005 224.33 101.527 222.643 90.5837 222.748 91.0936 220.004 80.5187 220.157 81.0092 216.409 70.8573 216.608 71.3235 211.911 61.6491 212.151 62.0874 206.559 52.9448 206.836 53.3527 200.405 44.7962 200.716 45.172 193.499 37.2561 193.842 37.5985 185.894 30.3774 186.266 30.6852 177.641 24.2133 178.041 24.4851 168.794 18.8167 169.219 19.0507 159.404 14.2402 159.852 14.4342 149.524 10.5359 149.992 10.6876 139.205 7.75585 139.689 7.86278 128.497 5.952 128.993 6.01208 117.451 5.17658 117.953 5.18839 106.184 5.48538 106.69 5.44766 95.2318 6.87139 95.7283 6.78488 84.6411 9.28045 85.1228 9.14718 74.4654 12.6597 74.9281 12.4821 64.7597 16.9566 65.2002 16.7371 55.5799 22.1188 55.9957 21.8595 46.9828 28.0934 47.3718 27.7961 39.0254 34.8274 39.3855 34.4936 31.7649 42.2673 32.0937 41.898 25.2582 50.3593 25.5531 49.9558 19.5617 59.0497 19.8193 58.6135 14.7314 68.2852 14.9478 67.8188 10.8225 78.0133 10.9936 77.5201 7.89014 88.1826 8.01172 87.6679 5.9893 98.7434 6.0579 98.2138 5.17573 109.648 5.18919 109.114 5.49412 120.576 5.45226 120.043 6.91412 131.202 6.81848 130.681 9.38089 141.479 9.23455 140.977 12.8411 151.357 12.6479 150.879 17.2423 160.782 17.0063 160.333 22.5321 169.702 22.257 169.284 28.6579 178.062 28.3469 177.676 35.5665 185.804 35.2224 185.452 43.2044 192.874 42.8294 192.557 51.5174 199.214 51.1137 198.934 60.4512 204.77 59.5012 204.304 68.9603 207.789ZM68.4773 186.367 112.177 223.966 55.8782 236.367Z" fill="#A02B93" fill-rule="nonzero" fill-opacity="1" transform="matrix(-6.12323e-17 -1 -1 6.12323e-17 4022 1880)"/><text fill="#00B050" fill-opacity="1" font-family="Aptos,Aptos_MSFontService,sans-serif" font-style="normal" font-variant="normal" font-weight="400" font-stretch="normal" font-size="64" text-anchor="start" direction="ltr" writing-mode="lr-tb" unicode-bidi="normal" text-decoration="none" transform="matrix(1 0 0 1 3699.37 1994)">done_twist</text><text fill="#00B050" fill-opacity="1" font-family="Aptos,Aptos_MSFontService,sans-serif" font-style="normal" font-variant="normal" font-weight="400" font-stretch="normal" font-size="64" text-anchor="start" direction="ltr" writing-mode="lr-tb" unicode-bidi="normal" text-decoration="none" transform="matrix(1 0 0 1 4016.97 1994)">= 0</text><path d="M2395.5 564.5C2395.5 546.275 2410.27 531.5 2428.5 531.5L2940.5 531.5C2958.73 531.5 2973.5 546.275 2973.5 564.5L2973.5 696.499C2973.5 714.725 2958.73 729.5 2940.5 729.5L2428.5 729.5C2410.27 729.5 2395.5 714.725 2395.5 696.499Z" stroke="#042433" stroke-width="6.875" stroke-linecap="butt" stroke-linejoin="miter" stroke-miterlimit="8" stroke-opacity="1" fill="#D9D9D9" fill-rule="evenodd" fill-opacity="1"/><text fill="#000000" fill-opacity="1" font-family="Aptos,Aptos_MSFontService,sans-serif" font-style="normal" font-variant="normal" font-weight="700" font-stretch="normal" font-size="73" text-anchor="start" direction="ltr" writing-mode="lr-tb" unicode-bidi="normal" text-decoration="none" transform="matrix(1 0 0 1 2468.14 654)">S3 </text><text fill="#000000" fill-opacity="1" font-family="Aptos,Aptos_MSFontService,sans-serif" font-style="normal" font-variant="normal" font-weight="700" font-stretch="normal" font-size="73" text-anchor="start" direction="ltr" writing-mode="lr-tb" unicode-bidi="normal" text-decoration="none" transform="matrix(1 0 0 1 2566.11 654)">–</text><text fill="#000000" fill-opacity="1" font-family="Aptos,Aptos_MSFontService,sans-serif" font-style="normal" font-variant="normal" font-weight="700" font-stretch="normal" font-size="73" text-anchor="start" direction="ltr" writing-mode="lr-tb" unicode-bidi="normal" text-decoration="none" transform="matrix(1 0 0 1 2614.81 654)">TRANSIT</text><path d="M3031.26 658.42 3050.7 660.143 3072.99 663.542 3095.24 667.962 3117.45 673.382 3139.59 679.775 3161.62 687.113 3183.51 695.37 3205.22 704.52 3226.71 714.534 3247.95 725.387 3268.91 737.053 3289.54 749.504 3309.81 762.715 3329.69 776.659 3349.15 791.31 3368.13 806.643 3386.62 822.63 3404.57 839.246 3421.94 856.465 3438.71 874.261 3454.83 892.608 3470.27 911.48 3484.99 930.852 3498.96 950.697 3512.14 970.99 3524.49 991.705 3535.98 1012.82 3546.57 1034.3 3556.22 1056.12 3564.9 1078.27 3572.61 1100.89 3579.13 1123.47 3584.45 1145.96 3588.53 1168.18 3578.39 1170.05 3574.33 1147.95 3574.39 1148.21 3569.13 1125.97 3569.19 1126.21 3562.74 1103.87 3562.81 1104.1 3555.18 1081.71 3555.26 1081.92 3546.66 1059.99 3546.74 1060.19 3537.18 1038.57 3537.27 1038.76 3526.78 1017.47 3526.87 1017.65 3515.48 996.724 3515.58 996.9 3503.33 976.357 3503.44 976.524 3490.37 956.395 3490.47 956.554 3476.61 936.865 3476.73 937.017 3462.12 917.794 3462.23 917.939 3446.91 899.208 3447.02 899.347 3431.02 881.135 3431.14 881.268 3414.5 863.601 3414.62 863.728 3397.37 846.633 3397.5 846.754 3379.68 830.257 3379.81 830.373 3361.45 814.5 3361.59 814.611 3342.73 799.388 3342.87 799.495 3323.56 784.949 3323.7 785.052 3303.96 771.208 3304.11 771.307 3283.98 758.193 3284.13 758.287 3263.65 745.929 3263.81 746.019 3243.01 734.442 3243.18 734.529 3222.1 723.76 3222.27 723.842 3200.95 713.908 3201.12 713.985 3179.59 704.912 3179.78 704.984 3158.08 696.798 3158.27 696.865 3136.43 689.592 3136.63 689.654 3114.69 683.32 3114.9 683.375 3092.9 678.007 3093.12 678.055 3071.09 673.679 3071.32 673.719 3049.3 670.362 3049.62 670.4 3030.35 668.693ZM3034.85 689.535 2984.44 661.565 3037.06 638.02Z" fill="#A02B93" fill-rule="nonzero" fill-opacity="1"/><path d="M3336.14 1236.76 3321.52 1235.16 3300.9 1231.46 3280.35 1226.8 3259.85 1221.18 3239.44 1214.64 3219.15 1207.21 3199.01 1198.9 3179.06 1189.74 3159.32 1179.77 3139.83 1169.01 3120.62 1157.47 3101.73 1145.2 3083.18 1132.21 3065.01 1118.53 3047.25 1104.19 3029.94 1089.21 3013.1 1073.62 2996.77 1057.44 2980.99 1040.7 2965.78 1023.42 2951.18 1005.63 2937.22 987.359 2923.93 968.625 2911.35 949.456 2899.51 929.878 2888.45 909.915 2878.19 889.593 2868.78 868.937 2860.24 847.974 2852.6 826.732 2846.61 807.596 2841.47 788.509 2837.2 769.498 2833.82 750.704 2843.97 748.877 2847.33 767.562 2847.29 767.344 2851.51 786.142 2851.46 785.933 2856.54 804.815 2856.48 804.613 2862.41 823.548 2862.35 823.346 2869.9 844.385 2869.83 844.183 2878.29 864.949 2878.2 864.756 2887.53 885.222 2887.45 885.038 2897.61 905.179 2897.52 905.003 2908.49 924.793 2908.39 924.625 2920.13 944.039 2920.02 943.878 2932.5 962.89 2932.4 962.736 2945.57 981.319 2945.47 981.172 2959.32 999.301 2959.2 999.16 2973.69 1016.81 2973.58 1016.67 2988.67 1033.82 2988.55 1033.69 3004.22 1050.3 3004.09 1050.18 3020.3 1066.23 3020.17 1066.11 3036.88 1081.59 3036.75 1081.47 3053.93 1096.34 3053.8 1096.22 3071.42 1110.46 3071.28 1110.35 3089.31 1123.92 3089.17 1123.81 3107.57 1136.7 3107.42 1136.6 3126.16 1148.77 3126.01 1148.68 3145.06 1160.12 3144.9 1160.02 3164.22 1170.7 3164.05 1170.61 3183.62 1180.49 3183.45 1180.41 3203.22 1189.48 3203.04 1189.4 3222.99 1197.63 3222.8 1197.56 3242.89 1204.92 3242.69 1204.86 3262.89 1211.33 3262.68 1211.27 3282.96 1216.82 3282.74 1216.77 3303.06 1221.38 3302.83 1221.33 3323.17 1224.98 3322.82 1224.93 3337.26 1226.51ZM3333.38 1205.55 3382.99 1234.92 3329.73 1256.98Z" fill="#A02B93" fill-rule="nonzero" fill-opacity="1"/><text fill="#00B050" fill-opacity="1" font-family="Aptos,Aptos_MSFontService,sans-serif" font-style="normal" font-variant="normal" font-weight="400" font-stretch="normal" font-size="64" text-anchor="start" direction="ltr" writing-mode="lr-tb" unicode-bidi="normal" text-decoration="none" transform="matrix(1 0 0 1 3430.83 745)">done_seed</text><text fill="#00B050" fill-opacity="1" font-family="Aptos,Aptos_MSFontService,sans-serif" font-style="normal" font-variant="normal" font-weight="400" font-stretch="normal" font-size="64" text-anchor="start" direction="ltr" writing-mode="lr-tb" unicode-bidi="normal" text-decoration="none" transform="matrix(1 0 0 1 3749.37 745)">= 1</text><text fill="#00B050" fill-opacity="1" font-family="Aptos,Aptos_MSFontService,sans-serif" font-style="normal" font-variant="normal" font-weight="400" font-stretch="normal" font-size="64" text-anchor="start" direction="ltr" writing-mode="lr-tb" unicode-bidi="normal" text-decoration="none" transform="matrix(1 0 0 1 3430.83 822)">done_twist</text><text fill="#00B050" fill-opacity="1" font-family="Aptos,Aptos_MSFontService,sans-serif" font-style="normal" font-variant="normal" font-weight="400" font-stretch="normal" font-size="64" text-anchor="start" direction="ltr" writing-mode="lr-tb" unicode-bidi="normal" text-decoration="none" transform="matrix(1 0 0 1 3748.43 822)">= 1</text><text fill="#00B050" fill-opacity="1" font-family="Aptos,Aptos_MSFontService,sans-serif" font-style="normal" font-variant="normal" font-weight="400" font-stretch="normal" font-size="64" text-anchor="start" direction="ltr" writing-mode="lr-tb" unicode-bidi="normal" text-decoration="none" transform="matrix(1 0 0 1 2788.98 1264)">prev_state</text><text fill="#00B050" fill-opacity="1" font-family="Aptos,Aptos_MSFontService,sans-serif" font-style="normal" font-variant="normal" font-weight="400" font-stretch="normal" font-size="64" text-anchor="start" direction="ltr" writing-mode="lr-tb" unicode-bidi="normal" text-decoration="none" transform="matrix(1 0 0 1 3090.17 1264)">= S1</text><path d="M27.7481 161.982 34.2259 154.146 40.5258 148.391 47.0329 142.89 53.9283 137.473 61.2054 132.139 68.858 126.889 76.908 121.704 94.0038 111.642 112.535 101.904 132.422 92.5153 153.616 83.485 176.069 74.8223 199.731 66.5374 224.554 58.6412 250.488 51.1447 277.484 44.0595 305.492 37.3975 334.463 31.1706 364.346 25.3908 395.091 20.0705 426.65 15.2219 458.97 10.8575 492.003 6.98972 525.697 3.63101 560.003 0.793932 594.87-1.50893 630.248-3.26498 666.086-4.46158 702.335-5.0861 738.942-5.12585 775.859-4.56814 813.032-3.40037 844.622-1.92452 875.74-0.0242385 906.362 2.29106 936.458 5.01188 965.998 8.1287 994.956 11.632 1023.3 15.5124 1051.01 19.7605 1078.04 24.3667 1104.38 29.3219 1130 34.6166 1154.85 40.2416 1178.93 46.1877 1202.2 52.4458 1224.62 59.007 1246.18 65.8624 1266.84 73.0034 1286.58 80.4214 1305.37 88.1084 1323.18 96.0565 1339.98 104.258 1355.75 112.707 1370.46 121.398 1384.08 130.324 1396.58 139.482 1407.94 148.87 1418.12 158.487 1427.09 168.333 1434.82 178.407 1441.26 188.711 1446.38 199.239 1450 209.669 1440.26 213.052 1436.74 202.91 1436.97 203.471 1432.11 193.464 1432.37 193.946 1426.21 184.085 1426.49 184.489 1419.04 174.783 1419.32 175.118 1410.63 165.576 1410.9 165.851 1400.98 156.484 1401.23 156.71 1390.13 147.527 1390.36 147.712 1378.09 138.722 1378.31 138.875 1364.9 130.088 1365.11 130.215 1350.6 121.641 1350.78 121.746 1335.2 113.394 1335.37 113.483 1318.73 105.363 1318.89 105.438 1301.24 97.5586 1301.39 97.6222 1282.74 89.9941 1282.88 90.0485 1263.28 82.6809 1263.41 82.7277 1242.87 75.6302 1242.99 75.6706 1221.55 68.8528 1221.67 68.8878 1199.35 62.3592 1199.46 62.3897 1176.3 56.16 1176.41 56.1866 1152.43 50.2654 1152.53 50.2886 1127.77 44.6854 1127.86 44.7058 1102.34 39.4302 1102.43 39.4481 1076.18 34.5097 1076.27 34.5253 1049.32 29.9337 1049.4 29.9474 1021.78 25.7121 1021.86 25.724 993.598 21.8547 993.678 21.865 964.799 18.3713 964.877 18.3801 935.414 15.2715 935.491 15.279 905.471 12.5651 905.547 12.5714 875 10.2617 875.075 10.2668 844.03 8.37106 844.103 8.37502 812.59 6.90274 812.668 6.90581 775.577 5.74059 775.661 5.74255 738.828 5.18611 738.912 5.18669 702.387 5.22635 702.471 5.22559 666.306 5.84867 666.389 5.84656 630.634 7.04038 630.718 7.03691 595.424 8.7888 595.508 8.78393 560.725 11.0812 560.81 11.0749 526.59 13.9048 526.677 13.897 493.07 17.247 493.158 17.2374 460.215 21.0948 460.305 21.0834 428.076 25.4354 428.169 25.422 396.706 30.256 396.802 30.2403 366.154 35.5436 366.254 35.5253 336.473 41.2853 336.578 41.264 307.714 47.4679 307.824 47.4431 279.928 54.0783 280.044 54.0494 253.167 61.1032 253.29 61.0693 227.483 68.529 227.615 68.4892 202.928 76.3422 203.069 76.2951 179.553 84.5287 179.705 84.4727 157.412 93.0742 157.577 93.0072 136.555 101.964 136.736 101.883 117.038 111.182 117.235 111.084 98.9108 120.713 99.1276 120.592 82.2282 130.538 82.4049 130.43 74.5053 135.518 74.6304 135.434 67.106 140.597 67.2371 140.504 60.0943 145.74 60.2315 145.636 53.4765 150.942 53.6197 150.826 47.259 156.202 47.408 156.071 41.4478 161.516 41.9442 160.995 35.6963 168.553ZM55.8984 175.6 5.46959 203.534 13.3798 146.431Z" fill="#A02B93" fill-rule="nonzero" fill-opacity="1" transform="matrix(1 -1.22465e-16 -1.22465e-16 -1 1963 1941)"/><text fill="#00B050" fill-opacity="1" font-family="Aptos,Aptos_MSFontService,sans-serif" font-style="normal" font-variant="normal" font-weight="400" font-stretch="normal" font-size="64" text-anchor="start" direction="ltr" writing-mode="lr-tb" unicode-bidi="normal" text-decoration="none" transform="matrix(1 0 0 1 2469.5 1585)">done_seed</text><text fill="#00B050" fill-opacity="1" font-family="Aptos,Aptos_MSFontService,sans-serif" font-style="normal" font-variant="normal" font-weight="400" font-stretch="normal" font-size="64" text-anchor="start" direction="ltr" writing-mode="lr-tb" unicode-bidi="normal" text-decoration="none" transform="matrix(1 0 0 1 2788.05 1585)">= 1</text><text fill="#00B050" fill-opacity="1" font-family="Aptos,Aptos_MSFontService,sans-serif" font-style="normal" font-variant="normal" font-weight="400" font-stretch="normal" font-size="64" text-anchor="start" direction="ltr" writing-mode="lr-tb" unicode-bidi="normal" text-decoration="none" transform="matrix(1 0 0 1 2469.5 1662)">done_twist</text><text fill="#00B050" fill-opacity="1" font-family="Aptos,Aptos_MSFontService,sans-serif" font-style="normal" font-variant="normal" font-weight="400" font-stretch="normal" font-size="64" text-anchor="start" direction="ltr" writing-mode="lr-tb" unicode-bidi="normal" text-decoration="none" transform="matrix(1 0 0 1 2787.11 1662)">= 0</text><text fill="#00B050" fill-opacity="1" font-family="Aptos,Aptos_MSFontService,sans-serif" font-style="normal" font-variant="normal" font-weight="400" font-stretch="normal" font-size="64" text-anchor="start" direction="ltr" writing-mode="lr-tb" unicode-bidi="normal" text-decoration="none" transform="matrix(1 0 0 1 2481.56 2023)">done_seed</text><text fill="#00B050" fill-opacity="1" font-family="Aptos,Aptos_MSFontService,sans-serif" font-style="normal" font-variant="normal" font-weight="400" font-stretch="normal" font-size="64" text-anchor="start" direction="ltr" writing-mode="lr-tb" unicode-bidi="normal" text-decoration="none" transform="matrix(1 0 0 1 2800.11 2023)">= 0</text><text fill="#00B050" fill-opacity="1" font-family="Aptos,Aptos_MSFontService,sans-serif" font-style="normal" font-variant="normal" font-weight="400" font-stretch="normal" font-size="64" text-anchor="start" direction="ltr" writing-mode="lr-tb" unicode-bidi="normal" text-decoration="none" transform="matrix(1 0 0 1 2481.56 2100)">done_twist</text><text fill="#00B050" fill-opacity="1" font-family="Aptos,Aptos_MSFontService,sans-serif" font-style="normal" font-variant="normal" font-weight="400" font-stretch="normal" font-size="64" text-anchor="start" direction="ltr" writing-mode="lr-tb" unicode-bidi="normal" text-decoration="none" transform="matrix(1 0 0 1 2799.17 2100)">= 1</text><path d="M743 1446.84 1439.85 1446.84 1439.85 1457.16 743 1457.16ZM1434.7 1436.53 1465.63 1452 1434.7 1467.47Z" fill="#A02B93" fill-rule="nonzero" fill-opacity="1"/></g></g></svg>